<?xml version="1.0" encoding="utf-8"?>
<!-- Generator: Adobe Illustrator 14.0.0, SVG Export Plug-In . SVG Version: 6.00 Build 43363)  -->
<!DOCTYPE svg PUBLIC "-//W3C//DTD SVG 1.1//EN" "http://www.w3.org/Graphics/SVG/1.1/DTD/svg11.dtd">
<svg version="1.1" id="Layer_1" xmlns="http://www.w3.org/2000/svg" xmlns:xlink="http://www.w3.org/1999/xlink" x="0px" y="0px"
	 width="210px" height="130px" viewBox="0 0 210 130" enable-background="new 0 0 210 130" xml:space="preserve">
<g>
	<path fill="#FFFFFF" d="M11,1.5c-5.238,0-9.5,4.262-9.5,9.5v108c0,5.238,4.262,9.5,9.5,9.5h188c5.238,0,9.5-4.262,9.5-9.5V11
		c0-5.238-4.262-9.5-9.5-9.5H11z"/>
	<path d="M199,1H11C5.477,1,1,5.478,1,11v108c0,5.524,4.477,10,10,10h188c5.523,0,10-4.476,10-10V11C209,5.478,204.523,1,199,1
		L199,1z M11,128c-4.963,0-9-4.037-9-9V11c0-4.963,4.037-9,9-9h188c4.963,0,9,4.037,9,9v108c0,4.963-4.037,9-9,9H11L11,128z"/>
</g>
<text transform="matrix(1 0 0 1 9 41)"><tspan x="0" y="0" font-family="'CourierNewPSMT'" font-size="12">Military: 1</tspan><tspan x="0" y="14.4" font-family="'CourierNewPSMT'" font-size="12">Loyalty: 10</tspan></text>
<text transform="matrix(1 0 0 1 128.9883 41)"><tspan x="0" y="0" font-family="'CourierNewPSMT'" font-size="12">Oratory: 2</tspan><tspan x="-14.402" y="14.4" font-family="'CourierNewPSMT'" font-size="12">Influence: 5</tspan></text>
<text transform="matrix(1 0 0 1 9 17)" font-family="'CourierNewPS-BoldMT'" font-size="14">#3</text>
<text transform="matrix(1 0 0 1 71.3945 17)" font-family="'CourierNewPS-BoldMT'" font-size="14">Valerius</text>
<text transform="matrix(1 0 0 1 192.5986 17)" font-family="'CourierNewPS-BoldMT'" font-size="14">E</text>
<line fill="none" stroke="#000000" x1="1" y1="25" x2="209" y2="25"/>
<line fill="none" stroke="#000000" x1="1" y1="65" x2="209" y2="65"/>
</svg>
