<?xml version="1.0" encoding="utf-8"?>
<!-- Generator: Adobe Illustrator 14.0.0, SVG Export Plug-In . SVG Version: 6.00 Build 43363)  -->
<!DOCTYPE svg PUBLIC "-//W3C//DTD SVG 1.1//EN" "http://www.w3.org/Graphics/SVG/1.1/DTD/svg11.dtd">
<svg version="1.1" id="Layer_1" xmlns="http://www.w3.org/2000/svg" xmlns:xlink="http://www.w3.org/1999/xlink" x="0px" y="0px"
	 width="161px" height="17px" viewBox="33 137 161 17" enable-background="new 33 137 161 17" xml:space="preserve">
<g>
	<rect x="33.5" y="137.5" fill="#00BFFF" width="160" height="16"/>
	<path d="M193,138v15H34v-15H193 M194,137H33v17h161V137L194,137z"/>
</g>
<g>
	<rect x="161.5" y="137.5" fill="#FF0000" width="32" height="16"/>
	<path d="M193,138v15h-31v-15H193 M194,137h-33v17h33V137L194,137z"/>
</g>
<polygon points="178,142 178,143.2 177.6,143.2 177.6,144 177.4,144 177.4,144.4 177,144.4 177,145 177,146 177,146.2 176.6,146.2 
	176.6,147 176.4,147 176.4,147.8 176,147.8 176,149 177,149 177,147.8 177.4,147.8 177.4,147 177.6,147 177.6,146.6 178,146.6 
	178,146 178,145 178,144.8 178.4,144.8 178.4,144 178.6,144 178.6,143.2 179,143.2 179,142 "/>
</svg>
