<?xml version="1.0" encoding="utf-8"?>
<!-- Generator: Adobe Illustrator 14.0.0, SVG Export Plug-In . SVG Version: 6.00 Build 43363)  -->
<!DOCTYPE svg PUBLIC "-//W3C//DTD SVG 1.1//EN" "http://www.w3.org/Graphics/SVG/1.1/DTD/svg11.dtd">
<svg version="1.1" id="Layer_1" xmlns="http://www.w3.org/2000/svg" xmlns:xlink="http://www.w3.org/1999/xlink" x="0px" y="0px"
	 width="210px" height="130px" viewBox="0 0 210 130" enable-background="new 0 0 210 130" xml:space="preserve">
<g>
	<path fill="#FFFFFF" d="M11,1.5c-5.238,0-9.5,4.262-9.5,9.5v108c0,5.238,4.262,9.5,9.5,9.5h188c5.238,0,9.5-4.262,9.5-9.5V11
		c0-5.238-4.262-9.5-9.5-9.5H11z"/>
	<path d="M199,1H11C5.477,1,1,5.478,1,11v108c0,5.524,4.477,10,10,10h188c5.523,0,10-4.476,10-10V11C209,5.478,204.523,1,199,1
		L199,1z M11,128c-4.963,0-9-4.037-9-9V11c0-4.963,4.037-9,9-9h188c4.963,0,9,4.037,9,9v108c0,4.963-4.037,9-9,9H11L11,128z"/>
</g>
<text transform="matrix(1 0 0 1 9 57)"><tspan x="0" y="0" fill="#FF0000" font-family="'CourierNewPS-BoldMT'" font-size="8">5 Talents</tspan><tspan x="41.407" y="0" fill="#FF0000" font-family="'CourierNewPSMT'" font-size="8"> per Turn. Eliminated during</tspan><tspan x="0" y="9.6" fill="#FF0000" font-family="'CourierNewPSMT'" font-size="8">Alexandrine War. Income x2 if Drought or</tspan><tspan x="0" y="19.2" fill="#FF0000" font-family="'CourierNewPSMT'" font-size="8">Pirates; -2 Pop. Income/Pop penalty </tspan><tspan x="0" y="28.8" fill="#FF0000" font-family="'CourierNewPSMT'" font-size="8">increase 1 multiple per Drought condition.</tspan></text>
<text transform="matrix(1 0 0 1 9 110.623)"><tspan x="0" y="0" fill="#FF0000" font-family="'CourierNewPSMT'" font-size="8">Return to Curia if Destroyed.</tspan><tspan x="0" y="9.601" fill="#FF0000" font-family="'CourierNewPSMT'" font-size="8">Return to Forum if convicted or killed.</tspan></text>
<text transform="matrix(1 0 0 1 46.1904 17)" fill="#FF0000" font-family="'CourierNewPS-BoldMT'" font-size="14">Egyptian Grain</text>
<text transform="matrix(1 0 0 1 68.9941 33)" fill="#FF0000" font-family="'CourierNewPSMT'" font-size="12">Concession</text>
<text transform="matrix(1 0 0 1 192.5986 17)" fill="#FF0000" font-family="'CourierNewPS-BoldMT'" font-size="14">E</text>
<line fill="none" stroke="#FF0000" x1="2" y1="41" x2="208" y2="41"/>
<line fill="none" stroke="#FF0000" x1="2" y1="97" x2="208" y2="97"/>
</svg>
