<?xml version="1.0" encoding="utf-8"?>
<!-- Generator: Adobe Illustrator 14.0.0, SVG Export Plug-In . SVG Version: 6.00 Build 43363)  -->
<!DOCTYPE svg PUBLIC "-//W3C//DTD SVG 1.1//EN" "http://www.w3.org/Graphics/SVG/1.1/DTD/svg11.dtd">
<svg version="1.1" id="Layer_1" xmlns="http://www.w3.org/2000/svg" xmlns:xlink="http://www.w3.org/1999/xlink" x="0px" y="0px"
	 width="177px" height="17px" viewBox="25 137 177 17" enable-background="new 25 137 177 17" xml:space="preserve">
<g>
	<rect x="25.5" y="137.5" fill="#00BFFF" width="176" height="16"/>
	<path d="M201,138v15H26v-15H201 M202,137H25v17h177V137L202,137z"/>
</g>
<g>
	<rect x="169.5" y="137.5" fill="#FF0000" width="32" height="16"/>
	<path d="M201,138v15h-31v-15H201 M202,137h-33v17h33V137L202,137z"/>
</g>
<polygon points="186,142 186,143.2 185.6,143.2 185.6,144 185.4,144 185.4,144.4 185,144.4 185,145 185,146 185,146.2 184.6,146.2 
	184.6,147 184.4,147 184.4,147.8 184,147.8 184,149 185,149 185,147.8 185.4,147.8 185.4,147 185.6,147 185.6,146.6 186,146.6 
	186,146 186,145 186,144.8 186.4,144.8 186.4,144 186.6,144 186.6,143.2 187,143.2 187,142 "/>
</svg>
