<!-- Generator: Adobe Illustrator 12.0.0, SVG Export Plug-In . SVG Version: 6.00 Build 51448)  --><svg contentScriptType="text/ecmascript" zoomAndPan="magnify" xmlns:xlink="http://www.w3.org/1999/xlink" contentStyleType="text/css" id="Layer_1" enable-background="new 0 0 218 138" version="1.1" width="218" xml:space="preserve" preserveAspectRatio="xMidYMid meet" viewBox="0 0 218 138" height="138" xmlns="http://www.w3.org/2000/svg" overflow="visible">
<g>
	<path fill="#FFFF00" d="M203,0H15C6.729,0,0,6.729,0,15v108c0,8.271,6.729,15,15,15h188c8.271,0,15-6.729,15-15V15   C218,6.729,211.271,0,203,0L203,0z M5,15C5,9.478,9.477,5,15,5h188c5.523,0,10,4.478,10,10v108l0,0l0,0c0,5.523-4.477,10-10,10H15   c-5.523,0-10-4.477-10-10V15L5,15L5,15z"/>
</g>
</svg>