<?xml version="1.0" encoding="utf-8"?>
<!-- Generator: Adobe Illustrator 14.0.0, SVG Export Plug-In . SVG Version: 6.00 Build 43363)  -->
<!DOCTYPE svg PUBLIC "-//W3C//DTD SVG 1.1//EN" "http://www.w3.org/Graphics/SVG/1.1/DTD/svg11.dtd">
<svg version="1.1" id="Layer_1" xmlns="http://www.w3.org/2000/svg" xmlns:xlink="http://www.w3.org/1999/xlink" x="0px" y="0px"
	 width="97px" height="17px" viewBox="65 137 97 17" enable-background="new 65 137 97 17" xml:space="preserve">
<g>
	<rect x="65.5" y="137.5" fill="#00BFFF" width="96" height="16"/>
	<path d="M161,138v15H66v-15H161 M162,137H65v17h97V137L162,137z"/>
</g>
<g>
	<rect x="129.5" y="137.5" fill="#FF0000" width="32" height="16"/>
	<path d="M161,138v15h-31v-15H161 M162,137h-33v17h33V137L162,137z"/>
</g>
<polygon points="146,142 146,143.2 145.6,143.2 145.6,144 145.4,144 145.4,144.4 145,144.4 145,145 145,146 145,146.2 144.6,146.2 
	144.6,147 144.4,147 144.4,147.8 144,147.8 144,149 145,149 145,147.8 145.4,147.8 145.4,147 145.6,147 145.6,146.6 146,146.6 
	146,146 146,145 146,144.8 146.4,144.8 146.4,144 146.6,144 146.6,143.2 147,143.2 147,142 "/>
</svg>
