<?xml version="1.0" encoding="utf-8"?>
<!-- Generator: Adobe Illustrator 14.0.0, SVG Export Plug-In . SVG Version: 6.00 Build 43363)  -->
<!DOCTYPE svg PUBLIC "-//W3C//DTD SVG 1.1//EN" "http://www.w3.org/Graphics/SVG/1.1/DTD/svg11.dtd">
<svg version="1.1" id="Layer_1" xmlns="http://www.w3.org/2000/svg" xmlns:xlink="http://www.w3.org/1999/xlink" x="0px" y="0px"
	 width="129px" height="17px" viewBox="49 137 129 17" enable-background="new 49 137 129 17" xml:space="preserve">
<g>
	<rect x="49.5" y="137.5" fill="#00BFFF" width="128" height="16"/>
	<path d="M177,138v15H50v-15H177 M178,137H49v17h129V137L178,137z"/>
</g>
<g>
	<rect x="145.5" y="137.5" fill="#FF0000" width="32" height="16"/>
	<path d="M177,138v15h-31v-15H177 M178,137h-33v17h33V137L178,137z"/>
</g>
<polygon points="162,142 162,143.2 161.6,143.2 161.6,144 161.4,144 161.4,144.4 161,144.4 161,145 161,146 161,146.2 160.6,146.2 
	160.6,147 160.4,147 160.4,147.8 160,147.8 160,149 161,149 161,147.8 161.4,147.8 161.4,147 161.6,147 161.6,146.6 162,146.6 
	162,146 162,145 162,144.8 162.4,144.8 162.4,144 162.6,144 162.6,143.2 163,143.2 163,142 "/>
</svg>
