<?xml version="1.0" encoding="utf-8"?>
<!-- Generator: Adobe Illustrator 14.0.0, SVG Export Plug-In . SVG Version: 6.00 Build 43363)  -->
<!DOCTYPE svg PUBLIC "-//W3C//DTD SVG 1.1//EN" "http://www.w3.org/Graphics/SVG/1.1/DTD/svg11.dtd">
<svg version="1.1" id="Layer_1" xmlns="http://www.w3.org/2000/svg" xmlns:xlink="http://www.w3.org/1999/xlink" x="0px" y="0px"
	 width="113px" height="17px" viewBox="57 137 113 17" enable-background="new 57 137 113 17" xml:space="preserve">
<g>
	<rect x="57.5" y="137.5" fill="#00BFFF" width="112" height="16"/>
	<path d="M169,138v15H58v-15H169 M170,137H57v17h113V137L170,137z"/>
</g>
<g>
	<rect x="137.5" y="137.5" fill="#FF0000" width="32" height="16"/>
	<path d="M169,138v15h-31v-15H169 M170,137h-33v17h33V137L170,137z"/>
</g>
<polygon points="154,142 154,143.2 153.6,143.2 153.6,144 153.4,144 153.4,144.4 153,144.4 153,145 153,146 153,146.2 152.6,146.2 
	152.6,147 152.4,147 152.4,147.8 152,147.8 152,149 153,149 153,147.8 153.4,147.8 153.4,147 153.6,147 153.6,146.6 154,146.6 
	154,146 154,145 154,144.8 154.4,144.8 154.4,144 154.6,144 154.6,143.2 155,143.2 155,142 "/>
</svg>
